HIERARCHY
ROOT Hips
{
	OFFSET 0.000000 0.000000 0.000000
	CHANNELS 6 Xposition Yposition Zposition Zrotation Yrotation Xrotation 
	JOINT LHipJoint
	{
		OFFSET 0.000000 0.000000 0.000000
		CHANNELS 3 Zrotation Yrotation Xrotation
		JOINT LeftUpLeg
		{
			OFFSET 1.363060 -1.794630 0.839290
			CHANNELS 3 Zrotation Yrotation Xrotation
			JOINT LeftLeg
			{
				OFFSET 2.448110 -6.726130 0.000000
				CHANNELS 3 Zrotation Yrotation Xrotation
				JOINT LeftFoot
				{
					OFFSET 2.562200 -7.039590 0.000000
					CHANNELS 3 Zrotation Yrotation Xrotation
					JOINT LeftToeBase
					{
						OFFSET 0.157640 -0.433110 2.322550
						CHANNELS 3 Zrotation Yrotation Xrotation
						End Site
						{
							OFFSET 0.000000 0.000000 0.000000
						}
					}
				}
			}
		}
	}
	JOINT RHipJoint
	{
		OFFSET 0.000000 0.000000 0.000000
		CHANNELS 3 Zrotation Yrotation Xrotation
		JOINT RightUpLeg
		{
			OFFSET -1.305520 -1.794630 0.839290
			CHANNELS 3 Zrotation Yrotation Xrotation
			JOINT RightLeg
			{
				OFFSET -2.542530 -6.985550 0.000000
				CHANNELS 3 Zrotation Yrotation Xrotation
				JOINT RightFoot
				{
					OFFSET -2.568260 -7.056230 0.000000
					CHANNELS 3 Zrotation Yrotation Xrotation
					JOINT RightToeBase
					{
						OFFSET -0.164730 -0.452590 2.363150
						CHANNELS 3 Zrotation Yrotation Xrotation
						End Site
						{
							OFFSET 0.000000 0.000000 0.000000
						}
					}
				}
			}
		}
	}
	JOINT LowerBack
	{
		OFFSET 0.000000 0.000000 0.000000
		CHANNELS 3 Zrotation Yrotation Xrotation
		JOINT Spine
		{
			OFFSET 0.028270 2.035590 -0.193380
			CHANNELS 3 Zrotation Yrotation Xrotation
			JOINT Spine1
			{
				OFFSET 0.056720 2.048850 -0.042750
				CHANNELS 3 Zrotation Yrotation Xrotation
				JOINT Neck
				{
					OFFSET 0.000000 0.000000 0.000000
					CHANNELS 3 Zrotation Yrotation Xrotation
					JOINT Neck1
					{
						OFFSET -0.054170 1.746240 0.172020
						CHANNELS 3 Zrotation Yrotation Xrotation
						JOINT Head
						{
							OFFSET 0.104070 1.761360 -0.123970
							CHANNELS 3 Zrotation Yrotation Xrotation
							End Site
							{
								OFFSET 0.000000 0.000000 0.000000
							}
						}
					}
				}
				JOINT LeftShoulder
				{
					OFFSET 0.000000 0.000000 0.000000
					CHANNELS 3 Zrotation Yrotation Xrotation
					JOINT LeftArm
					{
						OFFSET 3.362410 1.200890 -0.311210
						CHANNELS 3 Zrotation Yrotation Xrotation
						JOINT LeftForeArm
						{
							OFFSET 4.983000 -0.000000 -0.000000
							CHANNELS 3 Zrotation Yrotation Xrotation
							JOINT LeftHand
							{
								OFFSET 3.483560 -0.000000 -0.000000
								CHANNELS 3 Zrotation Yrotation Xrotation
								JOINT LeftFingerBase
								{
									OFFSET 0.000000 0.000000 0.000000
									CHANNELS 3 Zrotation Yrotation Xrotation
									JOINT LeftHandIndex1
									{
										OFFSET 0.715260 -0.000000 -0.000000
										CHANNELS 3 Zrotation Yrotation Xrotation
										End Site
										{
											OFFSET 0.000000 0.000000 0.000000
										}
									}
								}
								JOINT LThumb
								{
									OFFSET 0.000000 0.000000 0.000000
									CHANNELS 3 Zrotation Yrotation Xrotation
									End Site
									{
										OFFSET 0.000000 0.000000 0.000000
									}
								}
							}
						}
					}
				}
				JOINT RightShoulder
				{
					OFFSET 0.000000 0.000000 0.000000
					CHANNELS 3 Zrotation Yrotation Xrotation
					JOINT RightArm
					{
						OFFSET -3.136600 1.374050 -0.404650
						CHANNELS 3 Zrotation Yrotation Xrotation
						JOINT RightForeArm
						{
							OFFSET -5.241900 -0.000000 -0.000000
							CHANNELS 3 Zrotation Yrotation Xrotation
							JOINT RightHand
							{
								OFFSET -3.444170 -0.000000 -0.000000
								CHANNELS 3 Zrotation Yrotation Xrotation
								JOINT RightFingerBase
								{
									OFFSET 0.000000 0.000000 0.000000
									CHANNELS 3 Zrotation Yrotation Xrotation
									JOINT RightHandIndex1
									{
										OFFSET -0.622530 -0.000000 -0.000000
										CHANNELS 3 Zrotation Yrotation Xrotation
										End Site
										{
											OFFSET 0.000000 0.000000 0.000000
										}
									}
								}
								JOINT RThumb
								{
									OFFSET 0.000000 0.000000 0.000000
									CHANNELS 3 Zrotation Yrotation Xrotation
									End Site
									{
										OFFSET 0.000000 0.000000 0.000000
									}
								}
							}
						}
					}
				}
			}
		}
	}
}
MOTION
Frames: 4
Frame Time: 0.008333
10.983010 17.939260 1.016073 -179.307812 17.689931 -171.400689 -1.814231 -0.587847 -0.081361 -5.243995 -4.034352 -20.048055 4.923896 13.691754 41.565043 0.594300 -4.571070 -0.268879 0.808100 -5.736700 -16.022400 1.795365 0.704122 -0.373572 16.024536 1.985819 -22.219979 -3.657374 -11.540586 33.951412 0.500476 -5.034807 -9.834660 -0.025600 1.032400 -2.838000 5.426127 2.328905 9.415959 2.038161 3.967339 -1.399466 0.109085 2.025133 -0.842049 -3.668737 0.621323 -18.987486 0.312364 1.990355 16.149515 1.036900 0.392200 12.393600 0.491945 2.266671 2.143389 -56.189574 -76.403122 3.787377 17.366657 -28.868110 -4.093757 0.705435 -0.928485 -11.535116 27.005242 37.326009 17.324900 -7.125000 0.000000 0.000000 -13.341200 71.426500 -8.442900 -1.995427 -3.243871 -4.366863 91.186028 55.667687 47.983435 -79.618275 62.474068 -51.490525 0.868956 0.077980 -12.908253 -54.961030 21.735945 -28.321900 7.125000 0.000000 0.000000 -16.023300 3.825800 -17.745800 
10.998755 17.937477 0.993000 -179.021421 17.872294 -171.488404 -1.804263 -0.547094 -0.027361 -4.879371 -4.022446 -19.860407 4.769028 13.523288 40.921823 0.571639 -4.254054 -0.378447 0.674800 -5.252700 -14.630900 1.830749 0.706746 -0.329785 16.313859 2.090091 -21.914744 -3.656194 -11.528493 33.928723 0.486989 -4.993940 -9.927371 -0.026400 1.049100 -2.884000 6.214239 2.252331 10.823439 1.708592 4.048815 -2.047870 -1.134669 1.995142 -2.929179 -3.192389 0.780237 -18.418073 0.568643 2.140405 17.011542 1.095500 0.564400 12.675200 0.430229 2.176832 1.685337 -57.962009 -74.651762 6.376597 17.271584 -28.850553 -4.047818 0.743432 -0.948665 -11.920516 26.811610 37.383458 17.204300 -7.125000 0.000000 0.000000 -13.777600 71.447700 -8.728700 -2.015867 -3.131077 -4.119672 92.508027 53.555591 48.624566 -80.684665 62.300818 -52.354895 0.851819 0.084487 -13.373803 -55.231060 21.772496 -28.587700 7.125000 0.000000 0.000000 -16.152000 4.023200 -17.952900 
11.011132 17.939755 0.964878 -179.293885 18.152479 -171.539098 -1.808392 -0.521217 0.017122 -5.163275 -4.022593 -19.785726 4.595875 13.330523 40.207483 0.538456 -3.821832 -0.711589 0.573000 -4.847500 -13.474200 1.870846 0.710457 -0.291636 15.966686 2.205289 -21.854169 -3.655531 -11.524010 33.927815 0.451480 -4.866510 -10.032609 -0.042000 1.322900 -3.637800 6.411363 2.225175 11.844071 1.305055 4.085741 -2.604435 -2.180746 1.925303 -4.646809 -2.716917 0.944600 -18.152771 0.658134 2.327229 17.944110 1.096100 0.733000 13.051700 0.371010 2.096166 1.324022 -58.724935 -73.228460 7.942122 17.283991 -28.792578 -4.023932 0.744191 -0.968636 -12.155820 27.068281 37.821901 17.558500 -7.125000 0.000000 0.000000 -14.050600 71.980800 -9.067700 -2.036551 -3.059490 -3.941802 93.697004 51.842626 49.199118 -82.035262 62.218389 -53.454454 0.836802 0.080967 -13.961784 -55.988703 21.992753 -29.515700 7.125000 0.000000 0.000000 -16.489100 4.787600 -18.565800 
11.026778 17.940448 0.940716 -179.427658 18.413060 -171.405254 -1.827484 -0.526199 0.019981 -5.245248 -3.897113 -19.838437 4.402166 13.116885 39.401488 0.517496 -3.544562 -0.826201 0.438300 -4.248100 -11.775700 1.877180 0.710182 -0.294258 15.821048 2.360343 -21.938126 -3.663164 -11.532690 33.966391 0.425992 -4.782554 -10.145197 -0.066600 1.665100 -4.580900 6.023176 2.332144 11.629466 1.292823 4.149858 -2.627230 -1.969062 1.968626 -4.601554 -2.716006 1.105558 -18.458488 0.366755 2.614841 18.253747 1.022900 0.814400 13.248500 0.379915 2.071067 1.315891 -58.378980 -73.191095 7.431561 17.207289 -28.618780 -3.960880 0.721061 -0.975461 -12.237854 27.751687 38.032341 18.148700 -7.125000 0.000000 0.000000 -13.351400 72.430100 -8.742400 -2.022176 -3.094317 -3.956609 94.306603 51.554562 49.792296 -82.974345 62.252394 -54.217878 0.832231 0.071783 -14.759235 -56.839733 22.673162 -31.065000 7.125000 0.000000 0.000000 -16.743500 6.270700 -19.272500 
